<svg width="239" height="49" viewBox="0 0 239 49" fill="white" xmlns="http://www.w3.org/2000/svg">
<g clip-path="url(#clip0_240_225)">
<path d="M54.3893 29.3643L41.319 35.1064C41.319 35.1064 37.1143 37.4296 30.9936 35.5423C27.8214 34.5643 23.7457 33.331 23.7457 33.331C23.7457 33.331 19.7274 32.4791 18.0007 27.8327C16.2741 23.1891 16.0102 21.0724 19.9052 18.2329C23.8031 15.3934 28.5413 11.8483 28.5413 11.8483C28.5413 11.8483 31.1198 9.47343 36.9164 10.9936C42.713 12.5108 52.1722 15.3159 52.1722 15.3159C52.1722 15.3159 54.8941 15.9785 57.9115 20.6708C60.8198 25.1997 59.3972 27.2476 54.3893 29.3585"/>
<path d="M66.8057 8.85404C65.9194 9.45349 65.0188 10.0243 64.1153 10.5922C63.209 11.1543 62.3198 11.748 61.3991 12.2815L61.445 12.2528C59.3742 13.6238 56.8215 13.8734 54.4782 13.3456C52.1923 12.7175 50.1071 12.161 47.9244 11.5214C43.6078 10.2767 39.3113 8.98597 35.052 7.52893L35.1037 7.54041C34.2002 7.31382 33.4057 6.98972 32.6256 6.54802C31.8626 6.10345 31.1255 5.55276 30.6092 4.79843C30.0872 4.02689 29.8262 3.25248 29.5107 2.45512C29.2182 1.66064 28.9858 0.840338 28.8855 0.00282885C29.1407 0.803051 29.5078 1.55451 29.8836 2.29164C30.2765 3.00295 30.6895 3.78022 31.1972 4.33091C32.2326 5.46671 33.8216 6.10345 35.3159 6.36159L35.3302 6.36159L35.3704 6.37306C39.7559 7.45149 44.1011 8.69055 48.4264 9.98123C50.5632 10.6151 52.8061 11.3063 54.8339 11.9717C56.8187 12.5597 59.1275 12.5253 60.9288 11.5272L60.9747 11.4985C61.9269 11.0195 62.9107 10.6036 63.8773 10.1533C64.8467 9.70875 65.819 9.26992 66.8057 8.8569"/>
<path d="M72.588 8.77382C71.1797 9.749 69.7284 10.6467 68.2857 11.5646L66.0973 12.8925C65.3315 13.3457 64.6632 13.687 64.1326 14.2377C63.5848 14.7597 63.1345 15.3706 62.9279 16.0389C62.71 16.7359 62.7128 17.3411 62.8448 18.1843C63.0914 19.8278 63.4127 21.4999 63.8171 23.066L63.8286 23.1032L63.8458 23.2094C63.8917 23.4589 64.2301 24.087 64.58 24.4972C64.9385 24.9561 65.3774 25.3806 65.8478 25.7764C66.8086 26.5594 67.8555 27.242 69.0028 27.873C71.2686 29.1608 73.5115 30.5032 75.7229 31.9401C73.2706 31.0137 70.8499 30.0012 68.4521 28.9256C67.256 28.395 66.0313 27.7612 64.9328 26.9294C64.3821 26.5106 63.8486 26.0517 63.3725 25.5039C62.905 24.9073 62.4748 24.4197 62.2453 23.3843L62.274 23.5277C61.7749 21.8126 61.4766 20.1289 61.2558 18.4052C61.1153 17.5763 61.1124 16.429 61.5025 15.5198C61.8581 14.579 62.5006 13.8075 63.2176 13.2052C63.9375 12.5856 64.841 12.2128 65.5667 11.86L67.8813 10.7901C69.4416 10.1104 70.9933 9.40195 72.588 8.77955"/>
<path d="M74.4495 34.791C71.8193 33.8301 69.2036 32.8291 66.6308 31.7392C66.0141 31.4926 65.277 31.1541 64.7579 30.9849C64.1728 30.8243 63.5188 30.7812 62.8764 30.8071C61.5857 30.8644 60.2893 31.1685 59.0588 31.6675C56.5922 32.7373 53.9592 33.8789 51.3922 34.9229C48.8137 35.9956 46.2122 37.0253 43.6079 38.0349L43.562 38.0549L43.5448 38.0607C42.6155 38.3246 41.6489 38.7261 40.8258 39.2452C40.0055 39.7644 39.297 40.4757 39.2053 41.3275C39.1995 41.7147 39.2884 42.297 39.3573 42.8075L39.5666 44.3822C39.7101 45.429 39.8449 46.4788 39.9539 47.5343C39.6498 46.519 39.3687 45.4979 39.102 44.4739L38.6919 42.9395C38.5685 42.4146 38.3821 41.97 38.3477 41.296C38.3964 39.9738 39.3143 39.0015 40.1919 38.3389C41.1097 37.662 42.0763 37.1658 43.149 36.7614L43.0859 36.7843C45.63 35.6399 48.1798 34.5185 50.7497 33.4372C53.3311 32.3301 55.8493 31.3119 58.5311 30.2334C59.9078 29.7544 61.3734 29.4246 62.8792 29.4734C63.6307 29.5049 64.3821 29.6053 65.1279 29.872C65.9109 30.2076 66.4157 30.5116 67.0696 30.8329C69.5621 32.0834 72.0115 33.4228 74.4495 34.8024"/>
<path d="M36.8933 49.0001C36.3512 48.1884 35.8636 47.3537 35.3588 46.522C34.8512 45.6959 34.375 44.8527 33.8961 44.0123L33.876 43.9664C33.2909 42.8163 32.3329 41.755 31.309 40.9204C30.2477 40.1001 29.0632 39.4691 27.7639 39.0618C25.019 38.2186 22.3 37.2921 19.5953 36.3141L19.5236 36.2883C19.0217 36.0703 18.3075 35.9384 17.6622 35.9212C16.9967 35.8925 16.3198 35.9584 15.6516 36.1133C14.9919 36.2854 14.3179 36.5005 13.6897 36.8275C13.0559 37.143 12.4564 37.5388 11.8512 37.949C12.3216 37.3954 12.8407 36.8677 13.4402 36.426C14.031 35.9728 14.685 35.5913 15.3877 35.2902C16.1019 35.0205 16.8591 34.8284 17.6392 34.771C18.4366 34.7309 19.1823 34.7624 20.0427 35.032L19.9739 35.0062C22.7589 35.7835 25.5296 36.6124 28.2773 37.5216C29.7257 37.9862 31.1111 38.7807 32.2526 39.8104C33.3999 40.8573 34.3091 42.0906 34.8655 43.5935L34.8483 43.5477C35.2126 44.4425 35.5739 45.3403 35.9038 46.2523C36.2422 47.1616 36.5922 48.0679 36.8933 48.9943"/>
<path d="M1.16443 17.7627C4.02687 18.3823 6.94668 18.4597 9.72308 18.0524C11.1055 17.8029 12.4565 17.4329 13.7185 16.8707C14.9948 16.3344 16.1105 15.5485 17.3209 14.711C19.6986 13.0733 22.0448 11.3724 24.2217 9.51673C24.7753 9.03201 25.2686 8.60178 25.6845 8.05682C26.1176 7.51187 26.4991 6.92102 26.8117 6.29863C27.4742 5.06818 27.784 3.63696 27.4656 2.19139C28.1511 3.52223 28.0278 5.1743 27.5574 6.61126C27.3108 7.33404 26.9694 8.01954 26.5708 8.67635C26.1778 9.35037 25.6013 9.93261 25.1051 10.4518C23.0142 12.5828 20.6623 14.3726 18.2559 16.0648C17.0599 16.8593 15.7635 17.7599 14.3179 18.3077C12.8809 18.8441 11.3838 19.214 9.87222 19.3259C6.8549 19.5439 3.8347 18.9932 1.16443 17.7627Z"/>
<path d="M6.43321 39.3858C7.56901 38.3676 8.76505 37.4297 9.941 36.466C11.1428 35.4937 12.3904 34.7021 13.1935 33.5749C13.6037 33.0299 13.9249 32.4419 14.0396 31.854C14.1027 31.5614 14.0941 31.2775 14.0626 30.9992L13.9622 30.5891L13.7844 30.0613C13.2996 28.6674 12.7346 27.2649 12.1323 25.9656L12.1151 25.9312L12.0778 25.8308C12.0061 25.6386 11.5959 25.108 11.2173 24.7954C10.8244 24.434 10.3684 24.1041 9.89224 23.8001C8.91993 23.2093 7.87017 22.7131 6.77166 22.257C4.56603 21.3593 2.34606 20.4702 -0.000114441 19.8822C1.21886 19.8535 2.4235 20.06 3.62813 20.255C4.82416 20.4759 6.00872 20.7742 7.1732 21.127C8.34342 21.4769 9.52798 21.9042 10.6408 22.518C11.1973 22.8307 11.7451 23.172 12.2585 23.6022C12.769 24.0841 13.2308 24.4397 13.6266 25.3661L13.5721 25.2313C14.2949 26.654 14.8198 28.0823 15.3016 29.5537L15.4737 30.1044C15.5282 30.3367 15.5856 30.569 15.62 30.8013C15.6544 31.2775 15.6257 31.7536 15.5053 32.1981C15.2672 33.0901 14.7882 33.8301 14.2433 34.4497C13.6868 35.0663 13.0616 35.5711 12.3847 36.0186L10.42 37.1888C9.09775 37.9316 7.79273 38.6974 6.43034 39.3887"/>
</g>
<path d="M82.0425 11.6468H87.6038C89.5053 11.6468 90.8897 12.1321 91.7569 13.0948C92.632 14.0575 93.0617 15.5453 93.0617 17.5582V18.5845C93.0617 19.9052 92.8628 20.9793 92.4729 21.8147C92.0831 22.6421 91.4864 23.2468 90.6828 23.6128V23.6844C92.5127 24.3686 93.4276 26.1587 93.4276 29.0468V31.2506C93.4276 33.2317 92.9503 34.7434 92.0035 35.7856C91.0567 36.8279 89.6644 37.345 87.8345 37.345H82.0425V11.6468ZM87.1662 22.1091C87.9061 22.1091 88.4551 21.9022 88.829 21.4885C89.195 21.0748 89.378 20.3747 89.378 19.3961V17.964C89.378 17.0331 89.2268 16.3568 88.9245 15.9431C88.6222 15.5294 88.1448 15.3225 87.5004 15.3225H85.7262V22.1091H87.1662ZM87.8345 33.6693C88.4869 33.6693 88.9643 33.4783 89.2746 33.0964C89.5849 32.7146 89.744 32.0622 89.744 31.1313V28.8877C89.744 27.7102 89.561 26.8987 89.195 26.4452C88.829 25.9917 88.2164 25.7689 87.3651 25.7689H85.7262V33.6613H87.8345V33.6693Z"/>
<path d="M99.2596 11.6468H95.5759V37.345H99.2596V11.6468Z"/>
<path d="M103.182 36.0244C102.219 34.9026 101.742 33.3114 101.742 31.2508V17.7413C101.742 15.6887 102.227 14.0974 103.182 12.9677C104.144 11.8459 105.529 11.281 107.335 11.281C109.141 11.281 110.525 11.8459 111.488 12.9677C112.451 14.0895 112.928 15.6807 112.928 17.7413V31.2508C112.928 33.3035 112.451 34.8947 111.488 36.0244C110.525 37.1462 109.141 37.7111 107.335 37.7111C105.529 37.7111 104.144 37.1462 103.182 36.0244ZM109.244 31.5054V17.4867C109.244 15.8001 108.608 14.9567 107.335 14.9567C106.062 14.9567 105.425 15.8001 105.425 17.4867V31.5054C105.425 33.1921 106.062 34.0354 107.335 34.0354C108.608 34.0354 109.244 33.1921 109.244 31.5054Z"/>
<path d="M122.939 11.6472H128.564C130.394 11.6472 131.77 12.1882 132.685 13.2623C133.6 14.3364 134.061 15.9196 134.061 17.9962V30.9885C134.061 33.065 133.6 34.6483 132.685 35.7223C131.77 36.7964 130.394 37.3374 128.564 37.3374H122.939V11.6472ZM128.5 33.6697C129.105 33.6697 129.566 33.4708 129.892 33.0809C130.219 32.6911 130.378 32.0546 130.378 31.1714V17.8052C130.378 16.9221 130.219 16.2856 129.892 15.8957C129.566 15.5059 129.105 15.307 128.5 15.307H126.622V33.6617H128.5V33.6697Z"/>
<path d="M136.536 11.6472H146.584V15.315H140.227V22.1095H145.279V25.7772H140.227V33.6697H146.584V37.3454H136.536V11.6472Z"/>
<path d="M149.496 36.0405C148.581 34.9266 148.12 33.3275 148.12 31.2509V29.787H151.604V31.5453C151.604 33.2081 152.241 34.0435 153.514 34.0435C154.134 34.0435 154.612 33.8446 154.938 33.4388C155.264 33.0331 155.423 32.3807 155.423 31.4737C155.423 30.3996 155.201 29.4449 154.755 28.6254C154.309 27.8059 153.482 26.8194 152.281 25.6737C150.761 24.2098 149.703 22.8811 149.098 21.6956C148.494 20.5102 148.191 19.1656 148.191 17.6778C148.191 15.649 148.661 14.0737 149.599 12.9599C150.538 11.846 151.899 11.2891 153.689 11.2891C155.479 11.2891 156.792 11.846 157.691 12.9599C158.598 14.0737 159.043 15.6729 159.043 17.7494V18.8155H155.559V17.4948C155.559 16.6117 155.399 15.9752 155.089 15.5695C154.779 15.1637 154.317 14.9648 153.721 14.9648C152.495 14.9648 151.875 15.7843 151.875 17.4232C151.875 18.3541 152.106 19.2213 152.559 20.0328C153.021 20.8443 153.848 21.8229 155.057 22.9686C156.601 24.4405 157.659 25.7692 158.24 26.9705C158.821 28.1719 159.115 29.5722 159.115 31.1873C159.115 33.2956 158.638 34.9107 157.691 36.0325C156.744 37.1543 155.36 37.7192 153.554 37.7192C151.748 37.7192 150.419 37.1623 149.504 36.0484"/>
<path d="M164.907 11.6472H161.223V37.3454H164.907V11.6472Z"/>
<path d="M168.79 36.0405C167.851 34.9266 167.381 33.3274 167.381 31.2509V17.7415C167.381 15.6649 167.851 14.0657 168.79 12.9519C169.728 11.838 171.089 11.2811 172.879 11.2811C174.669 11.2811 176.03 11.838 176.96 12.9519C177.899 14.0657 178.369 15.6649 178.369 17.7415V19.9453H174.884V17.4869C174.884 15.8002 174.247 14.9489 172.974 14.9489C171.702 14.9489 171.065 15.7922 171.065 17.4869V31.5453C171.065 33.2081 171.702 34.0435 172.974 34.0435C174.247 34.0435 174.884 33.216 174.884 31.5453V26.517H173.038V22.8413H178.361V31.2509C178.361 33.3274 177.891 34.9266 176.953 36.0405C176.014 37.1543 174.653 37.7112 172.871 37.7112C171.089 37.7112 169.72 37.1543 168.782 36.0405"/>
<path d="M180.748 11.6472H185.37L188.958 27.0263H189.022V11.6472H192.308V37.3454H188.521L184.097 18.5849H184.034V37.3454H180.748V11.6472Z"/>
<path d="M202.319 11.289H206.003V33.3115H212.065V36.9792H202.319V11.289Z"/>
<path d="M216.823 11.2811H221.811L225.63 36.9793H221.947L221.278 31.8794V31.951H217.093L216.425 36.9793H213.012L216.831 11.2811H216.823ZM220.841 28.4583L219.202 15.7604H219.13L217.523 28.4583H220.841Z"/>
<path d="M227.405 11.2811H232.966C234.867 11.2811 236.244 11.7664 237.119 12.7291C237.986 13.6998 238.424 15.1796 238.424 17.1925V18.2188C238.424 19.5395 238.225 20.6216 237.835 21.449C237.445 22.2764 236.848 22.8811 236.045 23.2471V23.3187C237.875 24.0029 238.79 25.793 238.79 28.6811V30.8849C238.79 32.866 238.312 34.3776 237.366 35.4199C236.419 36.4621 235.026 36.9793 233.197 36.9793H227.405V11.2811ZM232.528 21.7434C233.268 21.7434 233.817 21.5365 234.191 21.1228C234.557 20.7091 234.74 20.0089 234.74 19.0303V17.5982C234.74 16.6674 234.589 15.9911 234.287 15.5774C233.984 15.1637 233.507 14.9568 232.862 14.9568H231.088V21.7434H232.528ZM233.197 33.3036C233.849 33.3036 234.326 33.1126 234.637 32.7307C234.947 32.3568 235.106 31.6964 235.106 30.7656V28.5299C235.106 27.3524 234.923 26.5409 234.557 26.0874C234.191 25.6339 233.578 25.4111 232.727 25.4111H231.088V33.3036H233.197Z"/>
<defs>
<clipPath id="clip0_240_225">
<rect width="49" height="75.72" fill="white" transform="translate(75.72) rotate(90)"/>
</clipPath>
</defs>
</svg>